<svg width="64mm" height="64mm" viewBox="0 0 64 64" xmlns="http://www.w3.org/2000/svg"><path d="M36.4 28.28c.302.153.57.354.81.586V26.83a2.318 2.318 0 0 1-.81 1.45m-1.502-4.109c1.177 0 2.15.87 2.312 1.997v-13.34l-4.623 2.381v10.965a2.336 2.336 0 0 1 2.311-2.003m-2.31 2.653v2.042c.238-.233.51-.433.81-.586a2.331 2.331 0 0 1-.81-1.456m2.31 2.072a2.33 2.33 0 0 0-2.31 2.01v5.52h4.622v-5.523a2.332 2.332 0 0 0-2.312-2.007"/><path d="M33.54 26.5c0 .745.61 1.35 1.357 1.35.75 0 1.36-.605 1.36-1.35 0-.743-.61-1.348-1.36-1.348-.748 0-1.357.605-1.357 1.348m14.15 1.78c.3.153.57.354.81.586v-2.038a2.323 2.323 0 0 1-.81 1.452m-1.5-4.109c1.174 0 2.15.87 2.31 1.999V7.013l-4.623 2.382v16.777a2.338 2.338 0 0 1 2.312-2m-2.312 2.654v2.04c.24-.232.51-.434.81-.586a2.33 2.33 0 0 1-.81-1.454m2.312 2.07c-1.18 0-2.157.876-2.312 2.007v5.522H48.5v-5.52a2.333 2.333 0 0 0-2.31-2.009"/><path d="M44.83 26.5c0 .745.61 1.35 1.36 1.35.747 0 1.36-.605 1.36-1.35 0-.743-.613-1.348-1.36-1.348-.75 0-1.36.605-1.36 1.348m-21.213-2.32c1.177 0 2.15.87 2.312 1.999V12.293l-4.624-2.382v16.272a2.336 2.336 0 0 1 2.312-2.003m1.503 4.109c.3.153.568.354.81.586v-2.038a2.326 2.326 0 0 1-.81 1.452m-3.814-1.456v2.042c.238-.233.51-.433.81-.586a2.322 2.322 0 0 1-.81-1.456m2.311 2.072c-1.18 0-2.158.877-2.312 2.01v5.52h4.624v-5.52a2.331 2.331 0 0 0-2.312-2.01"/><path d="M22.26 26.5c0 .745.608 1.35 1.357 1.35s1.36-.605 1.36-1.35c0-.743-.61-1.348-1.36-1.348s-1.358.605-1.358 1.348m7.001 5.39a2.33 2.33 0 0 0-2.31 2.007v2.532h4.622v-2.53a2.333 2.333 0 0 0-2.312-2.009m1.502-.616c.3.153.57.354.81.586v-2.039a2.325 2.325 0 0 1-.81 1.453m-1.502-4.109c1.177 0 2.15.87 2.312 1.999v-13.97l-4.622-2.382v16.354a2.333 2.333 0 0 1 2.31-2.001"/><path d="M27.9 29.49c0 .744.608 1.35 1.358 1.35.75 0 1.36-.606 1.36-1.35 0-.743-.61-1.349-1.36-1.349-.75 0-1.358.606-1.358 1.35m-.952.326v2.04c.238-.232.508-.432.808-.585a2.322 2.322 0 0 1-.808-1.455M42.05 31.28c.301.153.572.354.81.586v-2.039a2.32 2.32 0 0 1-.81 1.453m-1.502-4.109c1.178 0 2.151.87 2.312 1.999V9.93l-4.623 2.381v16.862a2.335 2.335 0 0 1 2.311-2.002m-2.31 2.653v2.041a3.34 3.34 0 0 1 .81-.585 2.319 2.319 0 0 1-.81-1.456"/><path d="M39.19 29.49c0 .744.61 1.35 1.36 1.35s1.357-.606 1.357-1.35c0-.743-.61-1.349-1.358-1.349-.75 0-1.359.606-1.359 1.35m1.358 2.397a2.33 2.33 0 0 0-2.31 2.01v2.529h4.622v-2.53a2.334 2.334 0 0 0-2.312-2.009M17.973 27.17c1.177 0 2.151.87 2.312 1.999V9.385l-4.622-2.382v22.17a2.335 2.335 0 0 1 2.31-2.003m1.503 4.109c.3.153.57.354.808.586v-2.039a2.32 2.32 0 0 1-.808 1.453m-3.813-1.456v2.041c.238-.232.51-.432.81-.585a2.324 2.324 0 0 1-.81-1.456m2.31 2.072c-1.18 0-2.156.877-2.31 2.01v2.529h4.622v-2.53a2.331 2.331 0 0 0-2.312-2.009"/><path d="M16.617 29.49c0 .744.608 1.35 1.356 1.35.75 0 1.36-.606 1.36-1.35 0-.743-.61-1.349-1.36-1.349-.748 0-1.356.606-1.356 1.35m-.95 14.149h2.573l.992 3.855.99-3.855h2.563v6.336h-1.597v-4.832l-1.239 4.832h-1.446l-1.235-4.832v4.832h-1.6zm7.93 0h5.24v1.353h-3.28V46H28.6v1.292h-3.043v1.25h3.375v1.434h-5.335zm5.958 0h1.826l2.383 3.505V43.64h1.843v6.336h-1.843l-2.37-3.48v3.48h-1.839zm6.57 4.24 1.86-.117q.06.454.245.692.303.384.864.384.418 0 .643-.194.23-.199.23-.458 0-.247-.217-.441-.216-.195-1.002-.368-1.286-.29-1.834-.769-.553-.48-.553-1.223 0-.488.28-.92.286-.437.851-.683.57-.251 1.56-.251 1.212 0 1.846.454.64.45.76 1.435l-1.843.108q-.074-.428-.31-.623-.234-.194-.649-.194-.34 0-.513.147-.173.142-.173.35 0 .151.142.272.138.125.657.233 1.282.277 1.834.562.557.281.807.7.255.42.255.938 0 .61-.337 1.124-.336.514-.94.782-.605.264-1.525.264-1.614 0-2.236-.622-.62-.623-.703-1.582zM46.3 48.93h-2.228l-.306 1.046h-2l2.38-6.336h2.132l2.38 6.336H46.61zm-.41-1.37-.7-2.278-.695 2.278zm-28.507 7.77v-.478l1.723-.003v1.512q-.396.316-.818.477-.422.159-.866.159-.6 0-1.09-.256-.49-.258-.739-.744-.25-.487-.25-1.087 0-.594.247-1.108.25-.517.716-.767.467-.25 1.074-.25.442 0 .797.144.358.142.56.397.203.256.308.667l-.485.134q-.092-.312-.228-.49-.136-.177-.388-.283-.253-.108-.56-.108-.37 0-.639.114-.27.11-.436.294-.164.184-.255.403-.156.378-.156.82 0 .544.186.911.19.367.547.545t.76.178q.35 0 .683-.134.333-.136.505-.289v-.758zm3.533 1.597v-1.725l-1.567-2.348h.654l.802 1.228q.222.345.414.69.183-.32.444-.72l.788-1.198h.627l-1.623 2.348v1.726zm2.498 0v-4.073h.81l.963 2.884q.133.403.194.603.07-.222.217-.653l.974-2.834h.724v4.074h-.519v-3.41l-1.182 3.41h-.486l-1.176-3.468v3.468zm4.61 0v-4.073h.551l2.137 3.198v-3.198h.516v4.074h-.552l-2.137-3.201v3.2zm3.525 0 1.562-4.073h.58l1.665 4.074h-.613l-.475-1.234h-1.7l-.448 1.234zm1.174-1.672h1.38l-.426-1.128q-.194-.514-.288-.845-.078.392-.22.778zm.335-2.65.37-.779h.654l-.61.778z"/><path d="M35.33 56.93v-.5l2.084-2.609q.222-.277.422-.483h-2.27v-.48h2.914v.48l-2.284 2.826-.247.286h2.597v.48zm3.76 0v-4.073h.537v4.074zm4.026-4.073h.538v2.354q0 .614-.139.975t-.502.589q-.36.225-.95.225-.57 0-.934-.197-.364-.198-.52-.57-.155-.375-.155-1.022v-2.354h.54v2.35q0 .532.096.784.1.25.338.387.242.136.59.136.592 0 .845-.27t.253-1.036zm1.28 4.073v-4.073h.81l.964 2.884q.133.403.194.603.07-.222.216-.653l.974-2.834h.725v4.074h-.52v-3.41l-1.18 3.41h-.487l-1.177-3.468v3.468z"/></svg>